/* XPM */
static char *out[] = {
/* columns rows colors chars-per-pixel */
"50 50 252 2 ",
"   c None",
".  c #000C01",
"X  c #0B0B00",
"o  c #011402",
"O  c #041C02",
"+  c #111300",
"@  c #261F05",
"#  c #002402",
"$  c #002D0B",
"%  c #032806",
"&  c #1A2703",
"*  c #003C00",
"=  c #00330D",
"-  c #003506",
";  c #0B2714",
":  c #013214",
">  c #043C19",
",  c #1C3B15",
"<  c #222400",
"1  c #2B2C03",
"2  c #262804",
"3  c #253907",
"4  c #3A3718",
"5  c #34300B",
"6  c #093B26",
"7  c #153A24",
"8  c #172F22",
"9  c #243B25",
"0  c #323E26",
"q  c #0D1F21",
"w  c #453A15",
"e  c #783E19",
"r  c #004400",
"t  c #004E0E",
"y  c #03550C",
"u  c #07441A",
"i  c #18441E",
"p  c #075919",
"a  c #25451E",
"s  c #38491C",
"d  c #315008",
"f  c #116418",
"g  c #0F651B",
"h  c #39621D",
"j  c #206A1F",
"k  c #0C4C29",
"l  c #084924",
"z  c #154829",
"x  c #0D5126",
"c  c #0D582B",
"v  c #14532B",
"b  c #19542C",
"n  c #175729",
"m  c #174B36",
"M  c #0C5332",
"N  c #155432",
"B  c #1A5433",
"V  c #165C34",
"C  c #1B5B35",
"Z  c #19593A",
"A  c #0C4C32",
"S  c #274827",
"D  c #2A532D",
"F  c #25562B",
"G  c #254C37",
"H  c #235B34",
"J  c #235C3C",
"K  c #26543A",
"L  c #355738",
"P  c #30492B",
"I  c #1C672E",
"U  c #1B6237",
"Y  c #1D742A",
"T  c #26642A",
"R  c #3D682C",
"E  c #22623C",
"W  c #266A3B",
"Q  c #38663D",
"!  c #287A36",
"~  c #36753B",
"^  c #227428",
"/  c #484D15",
"(  c #7A4919",
")  c #7F410E",
"_  c #4E522D",
"`  c #7A4B27",
"'  c #79502B",
"]  c #687132",
"[  c #4D6928",
"{  c #195343",
"}  c #295A42",
"|  c #355349",
" . c #296846",
".. c #3B6749",
"X. c #2E7448",
"o. c #357747",
"O. c #3C7654",
"+. c #376A55",
"@. c #3C6360",
"#. c #46674C",
"$. c #4A685A",
"%. c #447D5B",
"&. c #527054",
"*. c #737249",
"=. c #557767",
"-. c #4D6E69",
";. c #68796A",
":. c #405745",
">. c #874817",
",. c #8C541A",
"<. c #904A16",
"1. c #874B25",
"2. c #89532C",
"3. c #AE703C",
"4. c #967A27",
"5. c #97754C",
"6. c #937755",
"7. c #AA7A49",
"8. c #A57E54",
"9. c #B37954",
"0. c #A17C61",
"q. c #C67D48",
"w. c #2B843E",
"e. c #33863B",
"r. c #32943F",
"t. c #378947",
"y. c #3C9A4B",
"u. c #399648",
"i. c #3D9454",
"p. c #3A9A55",
"a. c #318749",
"s. c #3CA24D",
"d. c #3AA156",
"f. c #44944D",
"g. c #449B4C",
"h. c #478A5B",
"j. c #429653",
"k. c #439B5A",
"l. c #4A9C5A",
"z. c #479956",
"x. c #588B50",
"c. c #7A8A54",
"v. c #4AA459",
"b. c #52A55B",
"n. c #4A9A63",
"m. c #569566",
"M. c #5A9979",
"N. c #4E8667",
"B. c #73916A",
"V. c #6A8977",
"C. c #759676",
"Z. c #6D8D72",
"A. c #49A562",
"S. c #56AA67",
"D. c #5AB569",
"F. c #5DB674",
"G. c #54AB68",
"H. c #63BA6E",
"J. c #66B777",
"K. c #75BA7B",
"L. c #7DB26A",
"P. c #74C67A",
"I. c #68C778",
"U. c #A3983B",
"Y. c #B89432",
"T. c #C8AA3A",
"R. c #9A8F4F",
"E. c #B1895A",
"W. c #AF8852",
"Q. c #BBAA55",
"!. c #89966E",
"~. c #A68765",
"^. c #B2936A",
"/. c #8BA177",
"(. c #B6AE74",
"). c #9DA655",
"_. c #D09259",
"`. c #CBAF4E",
"'. c #CA9566",
"]. c #D59862",
"[. c #CC9267",
"{. c #E59D6D",
"}. c #CCAF79",
"|. c #E4A669",
" X c #84CB7F",
".X c #F0D15B",
"XX c #D4CD69",
"oX c #ECDA7A",
"OX c #FADB77",
"+X c #F6D273",
"@X c #FAE479",
"#X c #F6E770",
"$X c #779584",
"%X c #7B9091",
"&X c #7ABC87",
"*X c #75A982",
"=X c #73C687",
"-X c #76D487",
";X c #879686",
":X c #89958E",
">X c #8DB68F",
",X c #AEB689",
"<X c #A7BBA9",
"1X c #B3BEA6",
"2X c #8BBDA2",
"3X c #C6BA8B",
"4X c #E5B584",
"5X c #85CA95",
"6X c #8AD997",
"7X c #9ADA97",
"8X c #8FD092",
"9X c #A7CA83",
"0X c #A5C796",
"qX c #A7DA9A",
"wX c #B6D79C",
"eX c #B7C790",
"rX c #89E598",
"tX c #98E59D",
"yX c #8AE28E",
"uX c #A4E798",
"iX c #97DAA6",
"pX c #93C8A2",
"aX c #B8CDA8",
"sX c #A8D8A7",
"dX c #B6D6A8",
"fX c #A4CAB5",
"gX c #B9CABB",
"hX c #A8DBB7",
"jX c #B6DAB9",
"kX c #A8CAA6",
"lX c #99E7A6",
"zX c #9AE5B5",
"xX c #95EBA8",
"cX c #A6E4A5",
"vX c #A8E7A7",
"bX c #A8E8B4",
"nX c #AFEBAC",
"mX c #D2D48C",
"MX c #E9D981",
"NX c #F1CF8A",
"BX c #E3E789",
"VX c #FEE787",
"CX c #FFEC93",
"ZX c #C9D2AA",
"AX c #D8E6AC",
"SX c #E6E29A",
"DX c #B2CBC1",
"FX c #CBD8CD",
"GX c #DBF0DC",
"HX c #F7FCED",
"JX c #EDFFEF",
"KX c #E3EFD8",
/* pixels */
"                                                                                                    ",
"                                                                                                    ",
"                                                                                                    ",
"                                                                                                    ",
"                                                        HX+ KX                                      ",
"                                                  HXHX& ZXaXZX_ 1X                                  ",
"                                              HXGXP aXwXw SX@ ZXZXP FX                              ",
"                                          HX;XZ.<XgXa s ZXZXmX).B.jXfX;.FX                          ",
"                                      w ,X*.<XFX%X@.$X# h 9X% /.B.C.; DX$XDX                        ",
"                                    w 3X3X] ,XS %X$.fXbX7XuXwXsXjX#.*X=.$.DX;.;.                    ",
"                                  }.4.NXVXU.mX' eXsXsXuXtXuX6Xa.=XnXsXC.V.$.;XZX                    ",
"                                (.`.VX.XOX+XCXoXR.O 9XqXuXf ! a.xXvXsXsX8 ;.1 ,XFXZX                ",
"                            $.&.& AXXX#XoX#XY.OXT.#XoX[ wX^ 7X5X! tXcXhX& ;XAXAXAX5 aXgX            ",
"                          gX<X&.Q / XXBXU.XX`.@X.X#X@XQ.] (.wXuXcXbXcXjX:X;X[ ] >X0X0Xi o           ",
"                      gX>X$.V.% 7XL.! d (.mXoX#X@X#X+X`.XXBX).] aXkX#.V.$XV.sX>X&.F F L q           ",
"                  gX1X0 ;X#.jXvX7XvXcXf.R d mXBXQ.+X@X@X@X@XBX).(.!./.| fX2XW ~ n n G m |           ",
"              dX,X] 3X] !.dX7XuX7XvXb.tX7X~ R s XXBX@X@X#XY.@XVXXX3X*.!.>  .n x b b : G :X          ",
"            cX7X!.,X3X3X*.wXcXP.! v.yXy lXlXnX~ ^ d BXU.oXVXY.+X_.NX~._ S x V C - b  ....           ",
"            5Xv.cX0X& !.#.ZXiXK.6Xv.w.uXlXvXlXvXm.x.3 / R.NX_.+X>.' 6.4 L B $ U X.b k | o           ",
"            j.A.K.t.nX>X=.$X$ pXbXxXnXtXqXqXsXsXbXi B.& @ SX7.<.( ` 6.2 # E  .l W x n K .           ",
"            S.i.l.k.a.J.zX2Xm $X} fXsXwXZXwXkX$.$X$.B.aX4 1 7.,.( ` 6.s O.l  .k x b C z             ",
"            o.t i.p.p.&Xn.zXiX$.=.$X*.c.c.(.Z.&.=.DX>X7 P < W.>.) e 6.2 H M M v n : N K .           ",
"          o lXrXu.p p.z.A.rXw.yXbX0X1 SXeXs C.hXJ Z } m D & W.>.>._.^.w S C l = v X.k K .           ",
"          o m.D.P.rXf.r i.u.u.D.e.uXwX,Xc.aX5Xu C N m B # < E._.].[.7.5 a $ U X.u E A K .           ",
"          % l.i.b.f vXP.w.r u.s.g.yXf  XK.T W k B H i # a 1 }.[.<.( 5.5 7 O.u U C B Z G             ",
"          JXp w.g.t.P.Y P.yXe.g s.g.r.u.! T b N # u H Q 3 2 2.) ) [.}._ i B N N N k $ 7             ",
"          9 hXJ.* j.u.u.-X! tX8X^ ^ z.f.n v O A  .O.n F a @ 7._.].[.0._ D N N C # v  .l             ",
"          o pXh.iXa.y p.d.p.J.J.iXJ.~ f.u v i.M.C W C x P 2 [.q.1.e 0.4 G } $ B E H l J             ",
"          o m.S.&Xa.lX! u i.j.g.rXs.6X=X>X&X>  .Z m K 7 S 1 7.>.,.` ~.@ ; Z  .N l b b K             ",
"          8 F z.z.S.S.=XxXp.* y.d.d.n.i.H H N x N : 6 z P 2 E.( ( ' ~.4 L l N C C b } O             ",
"          GX~ g v.A.y.v.-X=XtX^ y l.i.n.B m L : > U U x L & E.>.<.( ^.2 F } v B B : N +.            ",
"          o &XlXG.g w.y.d.A.yXb.lXu.t j.B % 7 B x c U n S 2 W.>.7.4X(.1 D x B # B }  .z             ",
"          o m.K.A.xXw.y t.f.v.D.v.H.xXI  .m.u x c U v z O 1 E.|.|.1.^.3 P = l  .V U C G             ",
"          . h.n.A.F.I.xXf.* a.u.y.S.S.lX5XO.x N c n 6 : S 1 |.<.<.2.(.+ a %.V Z N A G K             ",
"          JX$ X.p.d.A.I.D.lXn.I l.z.k.=XX.Z N B : :  .B S @ 9.<.{.].^.4 L } Z m m                   ",
"          O bX&Xy w.s.s.D.A.F.xXt.- k.z.U C > : %.O.} } P 2 [.{.3.>.^.X 9 m A                       ",
"          # &XG.yXH.r f.S.i.A.G.lX6Xl.e.n n O.h.C +.{ { | @ 9.<.<.) 0.4 9                           ",
"            i.A.I.b.tXl.r a.p.d.S.b.J.5X7Xh.u b V k m 6 8 @ 7.>.1.1.,X                              ",
"              O.k.A.-Xg.rXF.* i.A.j.G.! - F b F v u > z L 5 0.1.1.'                                 ",
"                X.n.i.z.H.H.6XF.* j.y.i.C F l l = n C b _ & 6.`                                     ",
"                  -.@.M.n.A.H.u.tXg.g l.V $ k Z c c X.K 9 2                                         ",
"                      @.O.h.t.v.g.S.xXo.E J M.V c V z }                                             ",
"                          +.W l.k.p.P.zXpX#.B A M {                                                 ",
"                                X.h.h.pX#.K }                                                       ",
"                                      N.                                                            ",
"                                                                                                    ",
"                                                                                                    ",
"                                                                                                    ",
"                                                                                                    ",
"                                                                                                    "
};
