/* XPM */
static char *out[] = {
/* columns rows colors chars-per-pixel */
"50 50 237 2 ",
"   c None",
".  c #020203",
"X  c #050609",
"o  c #04090C",
"O  c #08090D",
"+  c #0A0D11",
"@  c #050C11",
"#  c #0E151A",
"$  c #0B1115",
"%  c #11161B",
"&  c #141A1E",
"*  c #161E25",
"=  c #1B242A",
"-  c #1A2329",
";  c #192B36",
":  c #14333D",
">  c #21252B",
",  c #222B31",
"<  c #24343B",
"1  c #2B343A",
"2  c #32373D",
"3  c #152F42",
"4  c #183848",
"5  c #153B55",
"6  c #243D4B",
"7  c #293945",
"8  c #333D42",
"9  c #313F48",
"0  c #333E52",
"q  c #1A4457",
"w  c #0A4458",
"e  c #39424A",
"r  c #39444C",
"t  c #234553",
"y  c #2E4254",
"u  c #27485B",
"i  c #334552",
"p  c #3B4B54",
"a  c #354B58",
"s  c #2F515F",
"d  c #3B535B",
"f  c #28404C",
"g  c #1B546E",
"h  c #234C63",
"j  c #2B4B62",
"k  c #354F6D",
"l  c #2B5368",
"z  c #3A5C6D",
"x  c #365467",
"c  c #2A5972",
"v  c #335C74",
"b  c #3B5C72",
"n  c #375371",
"m  c #39606D",
"M  c #29677C",
"N  c #34627B",
"B  c #3B637B",
"V  c #376776",
"C  c #424E58",
"Z  c #46545C",
"A  c #40474F",
"S  c #4C5B63",
"D  c #4B5E6A",
"F  c #475965",
"G  c #515F67",
"H  c #485E78",
"J  c #4A646C",
"K  c #56646C",
"L  c #45647B",
"P  c #4B6775",
"I  c #536572",
"U  c #546A76",
"Y  c #556D79",
"T  c #5A6D7B",
"R  c #576875",
"E  c #48727D",
"W  c #5A727C",
"Q  c #55757A",
"!  c #666E77",
"~  c #64747C",
"^  c #6A727F",
"/  c #2D6A87",
"(  c #3C6B84",
")  c #356A85",
"_  c #2A748C",
"`  c #3A7389",
"'  c #3B7B99",
"]  c #376F94",
"[  c #476D83",
"{  c #4D7385",
"}  c #477689",
"|  c #537483",
" . c #5C7483",
".. c #5B7A84",
"X. c #557B8D",
"o. c #5A7C8B",
"O. c #58758A",
"+. c #4A7A94",
"@. c #5A7B91",
"#. c #557B95",
"$. c #576C84",
"%. c #657582",
"&. c #677B87",
"*. c #697B93",
"=. c #3D849D",
"-. c #3E87A4",
";. c #3999A9",
":. c #5B838A",
">. c #498699",
",. c #538292",
"<. c #59859A",
"1. c #42828E",
"2. c #64838D",
"3. c #6B838C",
"4. c #638A8F",
"5. c #74848D",
"6. c #7B868B",
"7. c #638292",
"8. c #648C9C",
"9. c #6B8D9D",
"0. c #6A8594",
"q. c #728492",
"w. c #748B93",
"e. c #768C9D",
"r. c #7B8A96",
"t. c #6F9098",
"y. c #77949B",
"u. c #4787A5",
"i. c #5689A4",
"p. c #5996AA",
"a. c #5699B6",
"s. c #4C96B1",
"d. c #658AA2",
"f. c #7E8FA6",
"g. c #6A94A4",
"h. c #6494AA",
"j. c #649BAC",
"k. c #6699A5",
"l. c #7495A4",
"z. c #7C95A3",
"x. c #759BAC",
"c. c #7B9CA9",
"v. c #7797A8",
"b. c #699BB2",
"n. c #779CB4",
"m. c #5EA6B8",
"M. c #7AA2AC",
"N. c #68A6B7",
"B. c #7BA4B5",
"V. c #76A6B8",
"C. c #65B0BF",
"Z. c #7DB1BF",
"A. c #6B9EC2",
"S. c #5DA8C6",
"D. c #59BED7",
"F. c #68A9C6",
"G. c #77ADC7",
"H. c #6AB3C9",
"J. c #7AB2C9",
"K. c #74B9D7",
"L. c #66B9D8",
"P. c #7DC7DC",
"I. c #78C9E3",
"U. c #7EE9FA",
"Y. c #838B98",
"T. c #82949D",
"R. c #8394A2",
"E. c #839DAB",
"W. c #8699A7",
"Q. c #949AAA",
"!. c #829BB2",
"~. c #808FA8",
"^. c #8BA3AE",
"/. c #85A1A8",
"(. c #94A7AE",
"). c #84A3B3",
"_. c #8BA5B4",
"`. c #8BABBB",
"'. c #87A9B8",
"]. c #9BACB5",
"[. c #9DADBB",
"{. c #95AAB7",
"}. c #8EB2BC",
"|. c #96B4BC",
" X c #A4B4BA",
".X c #A5AEB4",
"XX c #8CABC3",
"oX c #88B7C7",
"OX c #9DBCC5",
"+X c #9BBCCC",
"@X c #95B7C6",
"#X c #87BCD2",
"$X c #9AB4CE",
"%X c #A7BAC5",
"&X c #B1B6CA",
"*X c #9BC4CC",
"=X c #89C7D8",
"-X c #9CCAD8",
";X c #8BD2D8",
":X c #AAC3C8",
">X c #B5C5C8",
",X c #A8C5D6",
"<X c #A6D3D9",
"1X c #B7D0DA",
"2X c #B7C8D6",
"3X c #88CBE6",
"4X c #87D7E6",
"5X c #96D4E6",
"6X c #9EDDF1",
"7X c #91D0ED",
"8X c #AACFE3",
"9X c #A7D8E7",
"0X c #B5D7E7",
"qX c #B4DEF1",
"wX c #87EBFC",
"eX c #98E8FA",
"rX c #88F4FE",
"tX c #9AF5FE",
"yX c #9CE2EC",
"uX c #A8E6EC",
"iX c #B9E1E9",
"pX c #A4E3F3",
"aX c #AAE3F3",
"sX c #A7E9FC",
"dX c #B8EAF8",
"fX c #A8F6FB",
"gX c #B9F5FC",
"hX c #C5D2D9",
"jX c #C1D0CD",
"kX c #C3DDF1",
"lX c #D5DDF0",
"zX c #C5E9EF",
"xX c #C5E7F6",
"cX c #D6EAF7",
"vX c #C6FAFD",
"bX c #D5FAFD",
"nX c #E5F8FD",
/* pixels */
"                                          nXbXgXfXvXvX                                              ",
"                                        vX<XuXgXfXfXgXxX                                            ",
"                                    %XOXM.P.eXeXtXyX;X*X$X                                          ",
"                                      z.4.=.M >.P.fX4Xp.&.*.r.Y.                                    ",
"                                      |.9.V c v v V j.<.[ Q 0.5.! 6.                                ",
"                          c.          %Xc.{ b n k l V } oXV Q Q T ~ W 0.@X                          ",
"                    aXaX9X@X            ,Xn.L H n n V ,.k.<XQ Q I a x X.v.'.:X                      ",
"                  dXdXsXuXuX            XXoXb.#.L         iX^.  0.m [ ) >.oXOXhX                    ",
"                xX9X6XgXN.oX_.      8XkX'.Z.=XN.        :XcX&X  L l 3XA.F.pXiX>X.X                  ",
"                8X#X6Xu.N.g.@X^.}.*XxXXXn.p.p.6X}     [.    hX    c b.s.a.H.-X:X X                  ",
"              0XXXN.` >.k.-Xv.`.*X<X+X'.n.b.b.5X}     OXcXcX,Xl.  g H._ >.J.*X(.    Y.Q.            ",
"              9.d.( V N #XB.0X`.k.M.v.d.V.J.b.+X8.o.:.c.+XkXoXi./ g ' K.s.#XM.      Q.[.Q.[. X      ",
"            y.X.X.j j @.[ '.M.o.{ [ { i.7XqXqXXXXXB.N.h.J.G.3X3X' ] ' ' oX8.            y.E.^.      ",
"            9.,.u q $.n U _.v.| z j h ) ( i.A.XX8X9X8XaXG.F.7XL.K.F.] b.}               ^.W.^.%X    ",
"          +Xg.l l z 0 I f._.c.| a 4 5 8.h u 0.{.XXv.9.8.G.p.I.L.S.' i.[ O.              ^.{.{.:X    ",
"          qXpX( [ L D ~.[.1X@X:.z a | 4 ; 0 R *.3.3. .[ { ] / _ / / ) { *.              t.'.XX1X    ",
"          vXeXS.+.L y.&X  bXxX$X^.I : ; = 7 9 2 A C C r a D x t j l x J 0.              g.B.5XdX    ",
"        xXgXeXL.F.#.W.>X  nXxXXXW r , ; - * > * > > > > 1 r r r i a d K 3.            e.B.oXpXdX    ",
"        dXfX4XH.( { ~.2XcXxX,X!.Y p 7 < * @ O O O O + % - = 1 C d a F T 5.              B.<X5X9XnX  ",
"      <XN.p.>.p.( $. .!.$X$X$X!.T Z 9 = $ o O . X . . o @ $ - r x F D R q.].          W.e.<X5X9XnX  ",
"      _.#.( V X.m m [ #.#XG.A.#.I F e & o . X . . . . . X o % < S $.R I W y.|.    %X].  4.,X$X,XhX  ",
"      ~.#.c q f t u v ( A.F.G.#.T C , # o . . . . . . . . o # ; C %.%.R Q ..t.`.(.y.w.~ W z.!.OX    ",
"      ~.O.l u y a j B u.S.P.H.h.U e # o X . . . . . . . . . O * 0 H | ..| E :.Q Q J S S J 5.&.Q.    ",
"      c.i.V h 5 6 a o.j.H.=XH.,.F 2 % o . . . . . . . . . . @ * y L #.8.{ V E u d J d Z K 5.&.Q.    ",
"      B.pXS.` g u R ~.  0XaX=X:.Z , % X . . . . . . . . X . O - l +.b.<.) h k 6 f d r Z K 5.].      ",
"    <XuXfXtXI._ b *.      cX*X4.J 1 # o . . . . . . . . . . $ 4 [ i.b.+.) 5 j 6 i 7 p Z Z r.        ",
"      fXtXrXU.;.` 7.        1X/.K 8 & $ . . . . . . X X . o & a +.V.i.i.v 5 5 4 y i p p K r.].      ",
"      uXfXrXU.U.` X.          ].~ A > % O . . . O . . . . o = F 9.G.h.h.v l h [ x d i J I 6.        ",
"      <XfXtXrXtXm.<./.        :X6.K e = + O . . X . . X o - 1 J 7.g.x.#.v l l { z E J W &.Y.        ",
"      <XuXfXrX4Xp.k./.          T.~ Z 8 - # + O . o o o # : C T y.c.!.7.:.B.k.g.8...c.^.%.q.        ",
"        fXfX;XC.>.8.|.        XXy.~ K Z A 2 > & # * % , r S 5.Q.{.W.&...c.*X+X@X`.).|.^.v.q.r.      ",
"        uXfXN.k.M.y.        9X}.2.U R 3.^ ! C 8 1 , < ~ ].].2XhX2XE.*.c.0X!.`.+XOXOX`.E.%Xf.R.      ",
"          fXdXM./.          -XuX>.[ O.2.@Xz.R.%.G G ..y.>XnX    2XXXh.9Xd.$X    :XOX  f.9.g.|.      ",
"          gXiX:X              pX=Xi.#.g.-XdX1X&XY.&.|.|.        &XG.7XF.i.v.            8.l.        ",
"                              gXsXs.i.A.9XvXnXlX&X/.:X*X      cX+XN.m.4Xu.c.            3.{.        ",
"          vX                  vX6XS.u.A.sXgXdXkX].|.*XOX  1XcXqXV.` C.4X1.+X                        ",
"                              -XK.' ] a.H.3XdX#XJ.dX;X=XoX*XvXoX{ ) _ H.j.`.                        ",
"                            (.o.} v ) g ' a.eXS.4XtXfXtXsXgXZ.,.v h w g ` *X%X                      ",
"                      jX>X.XW.&.H L 5 h ) _ wXs.D.U.rXrXeX5XV.,.L h l h ,.E y.                      ",
"                  jXjX>X(.Y.R.z. .D D x M =.=.I.wXD.U.wXeXaX=X8.<.k #.b s m K ! ^                   ",
"                  >X:X X].%.Y &.5.~ K Q ` i.s.F.3XS.u.p.i.#.<.,.p.8Xv t 4 s i d Z                   ",
"                     X(.w.T.e.I W T.y.c.M.J.G.=Xi.+.( B E  .9.X.+.) 5 3 q t 6 9 Z                   ",
"                    ].T.R.q.2.z.z.0.y./.M.+XqX9Xj.<.O.| T U  .{ V w m 4 : 3 6 f                     ",
"                        ].y.W.E.).`._.z././.^.|.M.3.W Y I D  .2.5Xh 4 3 : : f                       ",
"                              [.|._.[.[.]. X      w...3.w. .2.9.{ t 6 7 , 7                         ",
"                                                    w.~ W &.     .P a                               ",
"                                                                                                    ",
"                                                                                                    ",
"                                                                                                    ",
"                                                                                                    "
};
