/* XPM */
static char *out[] = {
/* columns rows colors chars-per-pixel */
"50 50 62 1 ",
"  c #1A1E22",
". c #1E2225",
"X c #1F232B",
"o c #212427",
"O c #23262C",
"+ c #25282E",
"@ c #282A2E",
"# c #252730",
"$ c #262932",
"% c #292C35",
"& c #2C2F38",
"* c #2D3137",
"= c #2E323B",
"- c #2F393E",
"; c #30343D",
": c #35393E",
"> c #2F3440",
", c #323641",
"< c #343A44",
"1 c #3A3E47",
"2 c #353B4A",
"3 c #393B4A",
"4 c #37414D",
"5 c #3C414C",
"6 c #3D4352",
"7 c #3F4A53",
"8 c #414753",
"9 c #444956",
"0 c #454C5A",
"q c #4A515E",
"w c #444D60",
"e c #484F61",
"r c #465164",
"t c #4B5465",
"y c #4E5866",
"u c #4D5668",
"i c #4E5869",
"p c #515867",
"a c #505768",
"s c #535C6D",
"d c #565F70",
"f c #585F71",
"g c #55606E",
"h c #58626F",
"j c #576071",
"k c #596273",
"l c #616674",
"z c #626976",
"x c #646B7D",
"c c #6B727F",
"v c #727884",
"b c #757C88",
"n c #7D8595",
"m c #838797",
"M c #848B9B",
"N c #8C93A3",
"B c #9296A6",
"V c #949AAA",
"C c #989EAF",
"Z c #96A0B3",
"A c #9DA5BA",
"S c #A2ABBB",
/* pixels */
"%$$%$$$%=,;;;;;;;;;;;;;;;;%&%&&%*;;:;;:;*&;;<$;:=$",
"%$$$$$$$$;;&$&&$;;;$%=;==;sskkjkjgr+$$$$$$$%=#%=1&",
"$$$$$$$$;;;$%;$;%=$$$+*$==jjjjjjjjg+$$$$$$&&%#$%$$",
"%$$$$$;,&;$%%;#%%##;OOO===kjfjjjjjgo;;##$$$$#$==*$",
"%$$$$$%$$;$%=$;#;%&OOOO;*=ugjjjjii6$>bmMCSv##==%$$",
"%$$$$$$$$$*==$$$;;O+OO+*;=*OOOOOXOO%tkjjffn$=>#$$>",
"%$$$$$$o=%$%;;$$&1OoOOOO=;=<%$$$#%##rjjjjjv&$=====",
"%$$&$$$2=$**;$$%;;,8oOO5;;%=%%$$$O%yujffjjt&-==,=&",
"$$$&,$$$$$===,=,;;=$=O0;;%%;%$$=;O,=affkjjt*$==%$$",
"$$$%$#$$$$;,>>==;;=>=*$O+%$$;;:$%#;;26asjs5%%$$$$$",
"$%$$$#$$%rrtruruk:=*<=;;=>*&=$$O#$$,+oO+O$#&$$$$$$",
"$$$;$*;%$fjjdkkjy%=,;=;;;;====%$8;;;;%;*%$$$$$$$$=",
"$$$;OvnN+fjjjjjjgO;;;>;=;=;;>;;$$%;=;%%$=**$$$$$$$",
"$$%$$kjjOdfjjjjjg$;+$#;;;;;;;;$,%%;;$;;;=$>$$$$$$$",
",,$;&8jjO20626wuuo$$&*;;==$;;;$$;%#$;%;$,%=,$$#$$$",
";;;;;=$#$<$*#==O=;;%*;;;;,%;=;;;%=#;$:;;=$=;$$%,=&",
"*%=;;$+$%==$;=;$;;;;=;;,;*&=;;$$;;;%;;;&;;;;*=,*$=",
"$$;;=*$$%,*$;*;;;;;;;;;=,=;;;;=;;=*%*;;;;;$$%$%===",
">=;;;;%$$=,;;;;;=,=;,=&;;=;;$;;;;;;$$;:*$;$+;===,=",
";;=;,=;$==$;;;=$&&$==;;=;;;=,;=;;;5*+@&&**%&,=&;;;",
"&<;%;;%$&;=$*;,:+$;;=%;;;=;*=;=,;;OskkjjkkuX==O&<;",
";=*;;;=%&,;;%;;;&;:$=;;=;O+OOO,=;-<jkjjffkj>:=;$%=",
"Mbcq+;*,;%;;;&$+sfx;;=OOOOOOOO ;==<gjjfjjkk2VZZBBm",
"kskkn%$%%$;=;*&+fft&,OOOOOOOOOO*>*4jjjfsjkj%tkkhjj",
"kfjju$$=;&;%%,9$$**;=OOOOOoOOo+;=-,32<,;*%*Xtsjjjj",
"fhjfs*;;%&8<r=:;$:=;;OOOOOOO985===;:;;,:$%#=tjjjjj",
"sfff07$#;+&$;*$;;;;;;4OOOOOO=:+OO%%%&*++$$##itjjjd",
";<22$%#%&;&*$;;;=;;;;*=0oOOO;=ussspspsgatA&#*<,===",
"$$%%$;=&$$;;=>==%;;*;;;==O5,;lkjjjjjjjjjgt$$%;;;$&",
"$$&$$,;$;,*,%#XX&;;;=;;;===;;pjjjjjjjjjjgt$*$$$%$#",
"$;$$$$Cfiukkjjfjksz*<;<==,;=;yjjjjjjjjjjgt$$$$$$$$",
";#$$$$dkfk5jjjjfksk&=;=,==;;,0jjjjjjjjjf60$$=,$$,=",
",;;&;;sfff*kjjjjgjk%;;==,=,==*uidsddfsuut>=%>;#$&%",
";;%$%,adft*asfskkgs&;;*-&*&*=O%*&>&=,==&$#$&=;=;$$",
",,;$###$$+$@@O+$%%%=;$;,uusuutruknX>;;*;$$$$$$,$$$",
"#$&;;##%ouuuyyyyrtrtqqZ*sdjjjgjjjj%<;;$;,O$$$$$$$$",
"$;%&;##%OjjjjjjjgjjfgjsOsjjjjjjjjd;,;;;;$$X$$$$$$$",
"$O;;&%;;5jkjjjjjjjjjjjyOsjjfjjjfjj%,;;;$$$%$$;$$$$",
"$$&$%;$;<jjjjjjjjjjjjjuOyusfu36utuX;;;;$*,*$+<$$%$",
"$$&,;;;;6kjjjjjjjjjjfsrOO++++O+OO$%ruurqrutusxO$$$",
";;-$;=;;<kjjjkfjfffssrj%AuruuuergOsjjjjjffjjfdv$$$",
"%=&=,%=*2uuddituttussiu siwjfjjjgOtfjjjjjjjjjjq$$$",
"*;==O,;;<211212<<,,>&=$OdfjjjjjjgO4fjjjjjjjjjj8$$$",
"&;,:=;;%;;%===,=;======$ijjjjjjjg.M6ijjjjjjfjj=$$$",
";=;OO:.;;;*;===<,,;$=%>OujjjjjjjgOgx:uukjjjjdjO#$$",
"%$%OOoO;;;,;=,=:&O;;*$$#tjjjfjjjgX2qr%22<22<22X,=,",
";;+OOOO=;;;;;<==%;$,$$$$2udjfjk2rO$+%<=-=>=<===;=:",
",%O+0+O>===;;=,=$$==#%$O<<2222221O,*,=$$#$$*;$$$$#",
";;$#,==;;;;;;;*%$$,;$$$$$$$$,$$;===%*=$$%$,&*$$>$$",
"$%=+&$&=>==;===<;;=;;;;=;;==;;=;==;>=,;;==;;&&%*;%"
};
