/* XPM */
static char *out[] = {
/* columns rows colors chars-per-pixel */
"50 50 156 2 ",
"   c None",
".  c #342A2F",
"X  c #2F2D35",
"o  c #2E2B3A",
"O  c #342A35",
"+  c #332A39",
"@  c #352735",
"#  c #39303E",
"$  c #452D2E",
"%  c #442E34",
"&  c #433C3C",
"*  c #64392A",
"=  c #6A502F",
"-  c #342E48",
";  c #3E3246",
":  c #3A3254",
">  c #3D3C66",
",  c #3E3A6C",
"<  c #3E3A71",
"1  c #3D3771",
"2  c #483F48",
"3  c #463A57",
"4  c #543E5A",
"5  c #433964",
"6  c #40396A",
"7  c #413B75",
"8  c #443D79",
"9  c #4B454C",
"0  c #4E484F",
"q  c #4A4345",
"w  c #54484C",
"e  c #4E4950",
"r  c #544350",
"t  c #654455",
"y  c #7A5A5E",
"u  c #584F61",
"i  c #5E5568",
"p  c #4D427E",
"a  c #534D7C",
"s  c #6A5F72",
"d  c #70637B",
"f  c #8F4E30",
"g  c #AE6139",
"h  c #C46E3E",
"j  c #CC703B",
"k  c #D9743E",
"l  c #ED7D2F",
"z  c #F37B2E",
"x  c #F9782C",
"c  c #F9772F",
"v  c #EF7B32",
"b  c #ED7C3A",
"n  c #F27A32",
"m  c #F67934",
"M  c #9A6B48",
"N  c #836267",
"B  c #B56A6A",
"V  c #AF7671",
"C  c #DE7C40",
"Z  c #D37C75",
"A  c #F37F7D",
"S  c #EF8633",
"D  c #F0843F",
"F  c #B6834F",
"G  c #D68848",
"H  c #C59453",
"J  c #DD9E5A",
"K  c #EC8743",
"L  c #F59646",
"P  c #FFAE54",
"I  c #FEB655",
"U  c #FCB954",
"Y  c #FEB659",
"T  c #FAB859",
"R  c #F4B85E",
"E  c #E39764",
"W  c #F79D64",
"Q  c #ED8477",
"!  c #ED837B",
"~  c #E6857E",
"^  c #F1817A",
"/  c #F08277",
"(  c #DAA660",
")  c #E5B068",
"_  c #F2B365",
"`  c #FAB663",
"'  c #FABB66",
"]  c #EEC378",
"[  c #F3C17B",
"{  c #474082",
"}  c #4C4483",
"|  c #534B8C",
" . c #564E93",
".. c #5B5293",
"X. c #5D559A",
"o. c #62599F",
"O. c #645A97",
"+. c #7D5F9B",
"@. c #736D99",
"#. c #6157A3",
"$. c #665BA5",
"%. c #695CA3",
"&. c #665BAA",
"*. c #695EAA",
"=. c #6659B1",
"-. c #776DAF",
";. c #7167A5",
":. c #7B72AD",
">. c #776EB0",
",. c #847CA5",
"<. c #857AB6",
"1. c #90869E",
"2. c #BE9391",
"3. c #9990A5",
"4. c #AEA6BD",
"5. c #BBA3B7",
"6. c #DE918D",
"7. c #D78F98",
"8. c #C29E9B",
"9. c #D09297",
"0. c #EC8581",
"q. c #E18083",
"w. c #F18380",
"e. c #C6A19B",
"r. c #F7B78F",
"t. c #FFB08A",
"y. c #F0A49E",
"u. c #F6B795",
"i. c #C29FA0",
"p. c #C19EB9",
"a. c #CAA4A2",
"s. c #FEBCB3",
"d. c #F9D295",
"f. c #FFC7BB",
"g. c #FECABD",
"h. c #9E97C2",
"j. c #A097C9",
"k. c #AEA9C6",
"l. c #ACA4CB",
"z. c #AEA8CD",
"x. c #B2A7C6",
"c. c #BBA5C2",
"v. c #B1A8C6",
"b. c #B1A7C9",
"n. c #B2A9C9",
"m. c #AEA5D1",
"M. c #C5BBD1",
"N. c #F3CDC6",
"B. c #FECBC1",
"V. c #E2CCD5",
"C. c #D6D2E5",
"Z. c #EBE2F3",
"A. c #F5EEF6",
"S. c #FCEBF0",
"D. c #F5EDF8",
"F. c #FFFAF6",
/* pixels */
"                                                                                                    ",
"                                                                                                    ",
"                                                      U m                                           ",
"          I n                               T       Y I n n       n                                 ",
"          I z                               Y   O O H I n h O O   n                                 ",
"          Y m                               I = O @ H I v j O + * n                                 ",
"    ` I U U x z n b                         U Y M F I I z m g f n n                                 ",
"    T   U U v n   m                         U I ' T I z l n v K n n                                 ",
"          P n                               T T F.I U r.u.z z V.z v                                 ",
"          m v                               + J P U U K D l n z k #                                 ",
"        &.&.&.%.                            O B Q Q Q Q / ! Q ! B +                                 ",
"      &.=.=.&.=.<                         O O 8.g.B.g.f.f.f.B.B.a.+ O                               ",
"    %.%.o.%.%.p 6 5                       O + 8.B.f.A B.B./ B.B.a.O O                               ",
"  Y T Y I I z v z n x                   O O + 8.B.B.f.B.B.f.B.B.a.+ O O                             ",
"  Y U F.I d.W m C.x x                   O O X a.B.f.e.B.f.e.f.B.a.O O +                             ",
"  _ U U U I n n z x b                   O O O y % O O O O O O % N O O +                             ",
"    6 , , , > > > 5                     O O O O O O O O O O O O O O O O                             ",
"      , , , > p >                         O O O O O O O O O O O O + O                               ",
"      U G 4 r k z                   ' I S n $ o o O O O O O O O O O                                 ",
"      R U P n n n                 I I I I m n n X O O O O O O O , , , a                             ",
"        b n n z                 D I I I l n n n O . O O O O O O , < > &.&.=.                        ",
"        x n z v                 n v S m z n v t : O O O O O O : , , 8 &.&.&.=.&.                    ",
"          m n                   3 v z z m z r , 6 O O @ O O O , , , *.&.&.&.&.&.                    ",
"          m n                 < , < 3 t 5 , 1 , > 6 - O O - , > > } &.&.&.&.&.&.                    ",
"          T I                 =.< > < , , , , 1 } 7 , , , , 1 , 1 &.&.&.&.&.&.$.,                   ",
"          I I               :.&.&., #.X.$.&., < &. ., , , , , | &.&.&.&.&.&.&.>  .&.                ",
"          U I               >.$.&., &.&.&.&., p &.} , |  .$.&.&.&.&., &.&.&.< < &.&.&.              ",
"          I I               >.&.&.#.&.&.&.&., X.&., , *.&.&.&.&.&.> #.&.&.X.> &.&., &.&.            ",
"          I U               >.&.&.&.&.&.&.&., &.$., , &.&.&.*..., , &.&.$., #.&.8 < &.&.&.          ",
"          I I               >.&.&.> &.&.&.%., &.&., , 7 } 7 , 6 < &.&.&., | &.$., , &.&.&.$.        ",
"          I I               >.&.&.> &.&.&.{ 7 &.&., , , , , 6 { &.&.&., { $.&.x.,.X.&.&.&.&.        ",
"          I U               #.&.$., &.&.&.6 &.&.&., , , 8 #.&.&.&.$., } &.&.l.n.x.:.&.&.&.&.%.      ",
"          U I               *.&.{ , *.&.&.&.&.&.7 , &.&.&.&.&.&.| , ..&.&.2 k.n.n.n.&.&.&.&.&.      ",
"          I U             O.&.&.6 , &.&.&.&.&.&.> , &.&.#.| 6 6 , &.&.&.k.O + l.n.k.k.$.&.&.&.      ",
"          U T &.&.&.$.8 > , , , > $.&.&.&.&.$.o.> < &.&.&.X. .%.&.*.$.v.n.@ + + x.x.k.;.&.&.&.=.    ",
"          U U &.&.&.&.&.&.8 , < $.&.&.&.&.&.&.x.,.&.&.&.&.&.&.&.&.m.v.v.n.O O O @ n.n.x.$.&.&.&.    ",
"      N.B.B.B.B.Q A &.&.&.&.&.&.&.&.&.&.&.&.h.v.n.n.m.;.&.&.:.b.v.v.n.k.n.@ O O @ s n.b.&.&.&.&.    ",
"      f.B.B.B.B.~ A @.&.&.&.&.&.&.&.&.&.&.:.v.n.v.v.v.v.n.v.n.k.v.n.b.n.x.O O O O n.n.n.<.*.&.&.    ",
"      B.y.Q Q Q / / p.%.&.&.&.&.&.&.&.&.l.v.v.Z.Z.n.l.v.n.n.n.x.M.D.b.v.x.. O O 3.x.k.b.n.&.&.&.$.  ",
"      g.B.B.B.B.0./ 5.x.b.j.*.&.&.*.l.v.v.n.Z.A.D.A.A.A.A.A.A.A.D.A.b.n.k.O O O v.k.n.v.n.=.&.&.&.  ",
"      B.g.B.f.B.5.x.x.b.n.n.n.x.n.v.v.v.n.k.A.A.A.A.A.A.A.A.A.A.A.A.n.x.x.O O 4.v.v.k.n.x.&.&.&.&.  ",
"      B.s.! 0.! c.z.b.n.n.n.k.x.v.v.# v.n.n.A.A.A.A.A.A.A.A.A.A.A.A.n.x.v.O @ z.k.n.n.b.O $.&.&.&.  ",
"      B.B.B.B.B.5.k.n.n.k.n.n.k.v.O O v.z.v.D.A.A.A.A.A.A.A.A.A.A.D.x.n.k.B Q ! l.k.k.@ O &.&.&.&.  ",
"        N.u.t.e.1.1.1.1.1.1.d @ O O O i v.x.x.A.A.A.A.A.A.A.A.A.A.x.x.4.9.A ! ^ Q n.; O O $.&.&.&.  ",
"          z m O O O O O @ O O O O O O O u v.x.v.A.A.S.A.A.S.A.A.4.v.x.9.^ ! ! ! Q Z O O O $.&.&.&.  ",
"          m n . O O O O O O O O O O O O O O O O O ) I U P L ( X O O O + A ! ^ ! 0.O O O O &.&.&.&.  ",
"          n m . O O O O O O O O O O O O O O O O O ` I U n m _ O O O O O q.0.^ ^ O O O O O &.&.&.$.  ",
"          n n O O O O O O O O O O O O O O O O O O ' I I z z _ O O O O O 0.^ w.O O O O O O &.&.&.;.  ",
"          E E w 0 e e 0 e e 0 0 0 0 0 0 9 9 9 0 9 & ] [ [ ] q 9 9 9 9 2.6.V 9 9 9 9 0 0 0 @.:.      ",
"                                                                                                    "
};
