/* XPM */
static char *out[] = {
/* columns rows colors chars-per-pixel */
"50 50 33 1 ",
"  c #1E1F1F",
". c #1D201E",
"X c #1E1F21",
"o c #1F2122",
"O c #202121",
"+ c #3C4044",
"@ c #43464B",
"# c #45494E",
"$ c #474B51",
"% c #4A4D52",
"& c #4E5156",
"* c #4E5459",
"= c #505457",
"- c #53565B",
"; c #56595E",
": c #595C5F",
"> c #565C61",
", c #5A5E63",
"< c #5D6166",
"1 c #5E6369",
"2 c #606467",
"3 c #62656A",
"4 c #65696E",
"5 c #686B6E",
"6 c #666C71",
"7 c #6A6D72",
"8 c #6D7176",
"9 c #6E7479",
"0 c #71757A",
"q c #75797E",
"w c #747B80",
"e c #7A7D82",
"r c #808388",
/* pixels */
"OXo.oOoOXXoXXoXooXXXXOOXXOXoX XXXXXXXXXXXoXXXooOXO",
"O=*-,&,,<,<31,,,4&>*3,,<<<,13<;>;3<<;;1-6,<<,,,,:X",
" ;&>#1<*;1,,<1>1>>44>>,,,,,>;19<14<;;;<1>,36113;,O",
"O->1<9%8><><,,31,,,4,4><2,,316>1,<<3,,1314,3>8w3;X",
"O,,,;<<<<4;<,3-<,,>-3<&<<8,3><,,,3,3,w-,11>1,3>33O",
"O->,<;>><,,,3%,3$,>&><,,<,>7<11,,,,,1,1w11%,,w>;,O",
"O<1*,,1,,<4&,,<,,,>><,3,,,w$1,,,,,3w;-<41611,<74,O",
"O,4>,1,13<0@-;5<,,>><,e&-,,1131633w1<,4<11;3,,w>,X",
"O$,26->>,,>>5,-334,,3<-,7&,<<<0-&3;,w-<3,<<<>>1,7 ",
"O<-3>3*>66>w&5-<,-,<<43038,<3<7-143w,3-,3<<;<w3w;X",
"O,34,4>w@7>,<<,<-3<8-4,7735<;<7w>,;ww<,w,<;w;46;2O",
"O,;3>,7,,3<,<<<<-,33<e3<3<<3,<<-,3,1,,;3,,<,;6<<3O",
"O<;-4-,-4>,,,,,,<,:,4,<<<3<<4<<,<4;4<,,,3;;34<<1<O",
"O,,;4@-33,,,,,,,5,<-3;,<<<<,w;;,4;<4<;w77,-&4<,<<O",
"O<,,=,,,,<,,33<,@-q,:,,,<,,,;,7,;;1,4,3,3,w<,33<<X",
" ;<2,,,3>3,<-3-4,8:5&3,,<,-7404<141;1;;<<8,,;43,2X",
"X4&<$>>13>%,>2,437,,<<>2,8,6223*<<<33,;333;;74333O",
"X&,;1;w133@>3-,2,,3,,<$>,;77<,,<,3,,,-<04,--33<<:O",
"X<w$1w,,-74,>,7,3,3,,169,,0,<,,;,,4-<<e<3533,,w-<O",
"X<1-,*<<<40>>,3,<33,>19,<-1<<32,<<0<,;7,<<3,,,e,< ",
"X%<33<<,<4,34*,2,,1>111>1,,332,,<7<,44<333,<33334O",
"X3-<<<413333>6,04<3>66>616-342<,43<744,03,<335374O",
"X3<3-<<7$3;4>169<347*>1w16343777334<:3;435-7,3<<4O",
"X<,,$,7,,4,<1116$<w<1w6>;<,<>,43<4<<<3<3<,333,<33O",
"X3,,7<3-72,,2<167,>;7*,--,,;5:3,73,,<3<<33,,66133O",
" <,34;;,,,<<11,60;,>7,,-;<-;e>,27,3<3<3<83<,,,<<<O",
"X,,3@,,,,,2,,<,3-<54115,>,,3<,4>,,<,,338847<7333<O",
"O<;-,w$7%4-<<,39,<6;-64,,<,4<64<-3343,37,764;33-<O",
" 3-3,333234,,3,337,,3453,5,,3,,,,3,,,w4433,<<3373O",
" ;<73,37;<&<44247,;-<,-,3-,43<<,,4,;3,383<<3,<7,<O",
" ,7&<<37&,4;,;8,<;--,37,,,743<<,,,8<,<74<<<<338@<O",
" 33-,<,341014>7-,=--,,r-,:7-2<,,,,e<<,,433<333q-<O",
" -,3,,3,33@,3,333;-;3,:,5;,7,,,,,3,37,33733<353,5 ",
"O3;,3,,33,,743,4@3,;30<3,5-03,,,,073,33333,330705 ",
"O,37,3;333;,3337,;%3<3,<3033,3;8,70<33<3<5<733773O",
"O;,,;,33,7,,3333,353<533,,43,33-<833,<<33,33;373,O",
"O,,,3+,,w,,<<<3<7%,,73,-3,<33,35833,333<3<,377,;: ",
" ;;;3%333,<,,,<<0,,333,&,<3<43,,33,,,<,,7;,,,7<;, ",
"O;;,&,3-;,3<,,3,33e3,30-;3<7:33,:<7<,,<3<,43,<4,: ",
" ;-7$7,4,4$,;,4,373,,33,<3<;<0;5-33:,<-3377337w7,O",
"O7-334;;<3&<,w&,,33,33,4-4<333,334<430,<,3,3<37,7 ",
"O;;,33;;-,&<4-,w;,,,33-,3<;77334;4-<43;733,3,37;3O",
"O,,,,,;;,-3-,,4,,3,,,34%<,7-334,<<8,,37,,,<3,,r,,O",
"O,,;4,<,-,r3,<3,-,3,3,07,4w%773<,30<344%3<,3,;w3< ",
"O%<3,3,,43;,w,-33,,,33<34,<3734<<34,73;3<<3,7w-,7O",
"O<;3%43;33,4$3%33,3;33,0<7;4,,:334,334,0<3;730<,3 ",
" <;3%337,3,44347,,,q,,73433w,7:03;33<3<3<,,7-<433O",
" 3<3%37,,e,4,344-,7--w333334,,,3333343334373,w333 ",
" --,3,,<535333:<7,:-033355<53,3,43,,;;3;8,7<4433; ",
"                                             O O  "
};
