/* XPM */
static char *out[] = {
/* columns rows colors chars-per-pixel */
"32 32 177 2 ",
"   c None",
".  c #272439",
"X  c #272A40",
"o  c #333948",
"O  c #38394E",
"+  c #3F4752",
"@  c #40424D",
"#  c #454E57",
"$  c #42475A",
"%  c #4A485F",
"&  c #444858",
"*  c #4B525E",
"=  c #464B60",
"-  c #4C5362",
";  c #455769",
":  c #535563",
">  c #565867",
",  c #50556E",
"<  c #5A5D6B",
"1  c #575670",
"2  c #565D71",
"3  c #595E72",
"4  c #4B626A",
"5  c #59636D",
"6  c #47697E",
"7  c #5D6274",
"8  c #5D6A74",
"9  c #5F687A",
"0  c #62616E",
"q  c #636477",
"w  c #656578",
"e  c #656C7B",
"r  c #6A6D7A",
"t  c #6B6378",
"y  c #65717E",
"u  c #6B747E",
"i  c #71707D",
"p  c #73797D",
"a  c #5B6980",
"s  c #5B6484",
"d  c #5B7089",
"f  c #597A8D",
"g  c #6F6683",
"h  c #666C81",
"j  c #6A6C81",
"k  c #646682",
"l  c #726A86",
"z  c #6B7482",
"x  c #667987",
"c  c #69758B",
"v  c #727484",
"b  c #737D86",
"n  c #71738C",
"m  c #737C8B",
"M  c #787C8B",
"N  c #687991",
"B  c #717F92",
"V  c #7D7E94",
"C  c #747395",
"Z  c #7778A4",
"A  c #827ED1",
"S  c #63898E",
"D  c #75828C",
"F  c #7B848F",
"G  c #608D9E",
"H  c #698C9C",
"J  c #768C97",
"K  c #7B8992",
"L  c #76859A",
"P  c #7C8C9C",
"I  c #778598",
"U  c #76919B",
"Y  c #6994A5",
"T  c #7E97A4",
"R  c #7B9CAC",
"E  c #6289B1",
"W  c #6E98B7",
"Q  c #7EA5B6",
"!  c #31BAC7",
"~  c #7C88DB",
"^  c #48B7D2",
"/  c #56BFD8",
"(  c #5ABEDD",
")  c #64B1C1",
"_  c #70B1C3",
"`  c #7DB7C2",
"'  c #77BBC8",
"]  c #7AACD3",
"[  c #63B2D8",
"{  c #74BCD4",
"}  c #73B2DF",
"|  c #7C83E1",
" . c #69B2EE",
".. c #76B8E0",
"X. c #7DB7E9",
"o. c #3ED3E1",
"O. c #4AC3D7",
"+. c #5ECAD2",
"@. c #42D6D5",
"#. c #65C5CE",
"$. c #7FC8CE",
"%. c #67C8D3",
"&. c #72C2D7",
"*. c #78C9D7",
"=. c #74C8D8",
"-. c #58D1F8",
";. c #65CEE0",
":. c #79D4E6",
">. c #818A94",
",. c #82889B",
"<. c #85949D",
"1. c #89919B",
"2. c #8086A0",
"3. c #888AAA",
"4. c #8394A5",
"5. c #8598A4",
"6. c #8D9DA5",
"7. c #8F9BAF",
"8. c #8796AB",
"9. c #9195A2",
"0. c #9099A4",
"q. c #9197AB",
"w. c #969BAB",
"e. c #8C97B2",
"r. c #979CB4",
"t. c #84A6AE",
"y. c #8AA3AE",
"u. c #83A4B3",
"i. c #8FA2B3",
"p. c #8DA9B5",
"a. c #80ACBE",
"s. c #8CA9BA",
"d. c #8BA5B9",
"f. c #94A5B2",
"g. c #9AA2B5",
"h. c #90A8B6",
"j. c #9FAFBE",
"k. c #92ACBB",
"l. c #8AB1BC",
"z. c #91B1B9",
"x. c #A0A6B4",
"c. c #A1A7BE",
"v. c #8582DE",
"b. c #9484D6",
"n. c #A286CD",
"m. c #89AFC2",
"M. c #86ABC1",
"N. c #86B2C5",
"B. c #8BBCC5",
"V. c #84BACA",
"C. c #89BACB",
"Z. c #94B4C5",
"A. c #98BAC6",
"S. c #93B4C9",
"D. c #92BECE",
"F. c #94BBC7",
"G. c #8AADD4",
"H. c #8BB1D7",
"J. c #8FB8D5",
"K. c #90B8D6",
"L. c #8484E2",
"P. c #8ECED9",
"I. c #84C3DC",
"U. c #94C7D0",
"Y. c #99C8D4",
"T. c #96CEDE",
"R. c #9FCBD9",
"E. c #97D0DB",
"W. c #9ED1DE",
"Q. c #A7C3CE",
"!. c #A2C6D5",
"~. c #A1D3D8",
"^. c #83CEEA",
"/. c #80D6EB",
"(. c #91D3E8",
"). c #A9D7E9",
"_. c #A7DCEA",
/* pixels */
"                                                                ",
"                                                                ",
"                                r.      4.                      ",
"                          0.x.I k.  L i.p.7                     ",
"                  P     P Y.G.@.O.! ) U.s.l q.                  ",
"                    f =.S ` I.+...@.%.).V.    i.h               ",
"                g.z.#.^ (  .          X.O.+.m.5.                ",
"                h.~.+.-.                  %.C.j.                ",
"                r *.                        W Y   8.            ",
"            w.B.:.                            _.x t g           ",
"            y 5.;.                            (.H               ",
"          j                                     ' D.            ",
"            ~.                                ..M.c             ",
"          a E.                                  (.J             ",
"          B C.&.                                R.Q.1           ",
"          K K.&.                                V.t.n           ",
"          U S./.                                K.l.F           ",
"          n 8.                                  V.t.n 3.        ",
"        n   H.                                  N.y.  c.        ",
"            E                                   G m     8.n     ",
"    2.s.S.  N {                                 Y ;   d s.M     ",
"    n m.` 6 Z.P.                                $.z.  d.p.e     ",
"    k A.U.Q I B.{                             _ ).4 8 U x r %   ",
"    , P 7.p.. U R ^.                        =.a.e.: r ,.< i     ",
"      m q.F P r.A.J.~                     :.S.Z.q.v D t q r     ",
"    h f.5.: 0 q j 5.G.L.              [ ] u.p.B t * <.g.w :     ",
"      v 1.7 > > 5 * 9 r.n.b.v.| ~ A Z 7 7 q v - e 8 u p @       ",
"      3 e r m 1.u # D J f.2 C 3.s L b y b b >.6.F D 5 > O       ",
"        7 P e 8 K + z D >.<.y.5.,.9.@ m z 5 - z u e 7 3         ",
"              X % % 7 e y r r r u z o 2 j e $ 7 7 7             ",
"                                                                ",
"                                                                "
};
