/* XPM */
static char *out[] = {
/* columns rows colors chars-per-pixel */
"32 32 191 2 ",
"   c None",
".  c #0B0200",
"X  c #0D0000",
"o  c #0E0000",
"O  c #0F0000",
"+  c #110000",
"@  c #120000",
"#  c #130000",
"$  c #120100",
"%  c #110300",
"&  c #150000",
"*  c #140100",
"=  c #160000",
"-  c #170000",
";  c #150300",
":  c #120400",
">  c #130600",
",  c #180000",
"<  c #1A0000",
"1  c #1A0100",
"2  c #190300",
"3  c #1D0100",
"4  c #1F0000",
"5  c #1B0500",
"6  c #1C0500",
"7  c #1D0600",
"8  c #1C0700",
"9  c #130A00",
"0  c #1E0F00",
"q  c #210000",
"w  c #240000",
"e  c #280200",
"r  c #280300",
"t  c #200800",
"y  c #B67A00",
"u  c #BB7807",
"i  c #BF7F04",
"p  c #A47B1F",
"a  c #BC7E11",
"s  c #9C7939",
"d  c #A3792D",
"f  c #A47839",
"g  c #C07E0D",
"h  c #B48600",
"j  c #B68700",
"k  c #AB811F",
"l  c #AB8427",
"z  c #B58425",
"x  c #A78335",
"c  c #AA8336",
"v  c #A3813A",
"b  c #A2873A",
"n  c #A7823C",
"m  c #B28238",
"M  c #C18702",
"N  c #C38106",
"B  c #C18008",
"V  c #C28417",
"C  c #E6AC27",
"Z  c #FDA833",
"A  c #F6AB38",
"S  c #FFAD38",
"D  c #FFAD39",
"F  c #FFAF3C",
"G  c #E5B932",
"H  c #E4BD32",
"J  c #E0BD3B",
"K  c #F3B732",
"L  c #F9B337",
"P  c #F3B139",
"I  c #F2B13B",
"U  c #FAB63B",
"Y  c #FEB13D",
"T  c #FFB23C",
"R  c #FDB23F",
"E  c #AA8848",
"W  c #9B8176",
"Q  c #97827D",
"!  c #99807A",
"~  c #9F847B",
"^  c #99817F",
"/  c #A0837D",
"(  c #C6B05B",
")  c #D7B551",
"_  c #D5B850",
"`  c #D8B853",
"'  c #DBBA5B",
"]  c #DDBA5E",
"[  c #E3BD42",
"{  c #E4BC43",
"}  c #E8BE5C",
"|  c #D5AE61",
" . c #CFB465",
".. c #CEBA64",
"X. c #D3B462",
"o. c #D0B662",
"O. c #D5B465",
"+. c #D6B06F",
"@. c #D2B677",
"#. c #D6BE76",
"$. c #D8BB75",
"%. c #D5B97A",
"&. c #E0BB6B",
"*. c #E1BB7A",
"=. c #FFDD55",
"-. c #FFDD56",
";. c #FFDC5B",
":. c #FFDF5C",
">. c #FFDE5E",
",. c #FFE24F",
"<. c #FFE155",
"1. c #FFE156",
"2. c #FFE356",
"3. c #FFE357",
"4. c #FFE456",
"5. c #FFE258",
"6. c #FFE558",
"7. c #FFE05D",
"8. c #FFE05F",
"9. c #D4C37E",
"0. c #FFD763",
"q. c #FFDD62",
"w. c #FFDF63",
"e. c #FFD864",
"r. c #FFDE65",
"t. c #FFD869",
"y. c #FFD969",
"u. c #FFDB68",
"i. c #FFDE68",
"p. c #FFDC6B",
"a. c #FFDF6A",
"s. c #FFDC6C",
"d. c #FFDE6D",
"f. c #FFDF6D",
"g. c #FDDF6F",
"h. c #FFDE6E",
"j. c #FFDC71",
"k. c #FFDB76",
"l. c #FFDD75",
"z. c #FFDE75",
"x. c #FFDC76",
"c. c #FFDC78",
"v. c #FFDF78",
"b. c #FFDF79",
"n. c #FFDC7B",
"m. c #FFDF7B",
"M. c #FFDD7C",
"N. c #FFE067",
"B. c #FFE266",
"V. c #FFE267",
"C. c #FFEB60",
"Z. c #FFE068",
"A. c #FFE268",
"S. c #FFE06D",
"D. c #FFE26D",
"F. c #FFE66D",
"G. c #FFE071",
"H. c #FFE376",
"J. c #FFE377",
"K. c #FFE574",
"L. c #FFE079",
"P. c #FFE378",
"I. c #FFE37B",
"U. c #FFE47B",
"Y. c #FFE17F",
"T. c #FFE47E",
"R. c #FFE97C",
"E. c #FFE87F",
"W. c #C7AF8B",
"Q. c #C9B18D",
"!. c #D1B792",
"~. c #D6C482",
"^. c #FFE684",
"/. c #FFE882",
"(. c #FFF69E",
"). c #FFF99F",
"_. c #FFFCA2",
"`. c #FFFFA2",
"'. c #FFFFA3",
"]. c #FFFCA4",
"[. c #FFFFA5",
"{. c #FFFEA6",
"}. c #FFFBB8",
"|. c #FFFDBA",
" X c #FFF7EE",
".X c #FFFFEA",
"XX c #FFFBEF",
"oX c #FFFCED",
"OX c #FFF9F1",
"+X c #FFFBF2",
"@X c #FFFCF3",
/* pixels */
"                                                                ",
"                                                                ",
"                                                                ",
"                                                                ",
"                                                                ",
"                                                                ",
"                                                                ",
"                                                                ",
"                            . 0 3 t                             ",
"                        X @ ~.( &.+.= o                         ",
"                      @ Q.@.{./.x.m.z c + .X                    ",
"                    ; !.|.(.L.t.0.r.;.f.b $ oX                  ",
"                  X W.}.Y.y.a g i M 1.-.h.x O                   ",
"                  * %.].s.B A Y U C j 6.8.k 1 OX                ",
"                . 9.).v.V R D S I w.=.G B.b.E , Q               ",
"                9 ..T.d.u F Z T p.h.a.{ i.U.d e ~               ",
"                > o.I.e.N L P u.z.n.[.] J.l.m w /               ",
"                % $.k.q.y K >.S.M.[.`.) G.^.f q ^               ",
"                  , } 7.4.h 5.Z._.'.J <.A.p < XX                ",
"                  # O.D.3.,.H [ ' ` 3.2.P.n O                   ",
"                    7  .F.C.:.N.g.K.V.j.s - @X                  ",
"                      8 o._ H.R.E.c.l v 6  X                    ",
"                        2 , #.X.| *.& : +X                      ",
"                            5 3 r 4                             ",
"                              W !                               ",
"                                                                ",
"                                                                ",
"                                                                ",
"                                                                ",
"                                                                ",
"                                                                ",
"                                                                "
};
