/* XPM */
static char *out[] = {
/* columns rows colors chars-per-pixel */
"32 32 228 2 ",
"   c None",
".  c #1E1B33",
"X  c #26283C",
"o  c #2B3042",
"O  c #3B3C54",
"+  c #303247",
"@  c #3E4757",
"#  c #365370",
"$  c #40424D",
"%  c #44495D",
"&  c #454859",
"*  c #4B525E",
"=  c #4B5665",
"-  c #535463",
";  c #5A5D6B",
":  c #55586D",
">  c #585D74",
",  c #59636D",
"<  c #5D6273",
"1  c #5D6878",
"2  c #4B626A",
"3  c #62616E",
"4  c #636477",
"5  c #63657A",
"6  c #656B7C",
"7  c #6A6D79",
"8  c #6B6378",
"9  c #65717E",
"0  c #6B747E",
"q  c #72757D",
"w  c #5A6682",
"e  c #59768B",
"r  c #636E83",
"t  c #696A81",
"y  c #6B7588",
"u  c #727484",
"i  c #737D86",
"p  c #72738A",
"a  c #737C8B",
"s  c #787C8B",
"d  c #717F92",
"f  c #797994",
"g  c #70728E",
"h  c #7779A4",
"j  c #575BD7",
"k  c #4B69D8",
"l  c #4B6DC9",
"z  c #6160D4",
"x  c #5760E3",
"c  c #6979EC",
"v  c #7B79EA",
"b  c #757EF3",
"n  c #867FEF",
"m  c #8876F4",
"M  c #5E8E9F",
"N  c #69868E",
"B  c #75828C",
"V  c #7B848F",
"C  c #678C9D",
"Z  c #7C8C9C",
"A  c #778697",
"S  c #76919B",
"D  c #7B9CAC",
"F  c #7E96A3",
"G  c #6794B7",
"H  c #6895A7",
"J  c #64ADBE",
"K  c #7CA1B3",
"L  c #00A5CF",
"P  c #00ACD4",
"I  c #08B9D8",
"U  c #31BCC9",
"Y  c #16B8E8",
"T  c #2CBAE8",
"R  c #3BAAF8",
"E  c #3EBCF5",
"W  c #38B7F6",
"Q  c #29B3F2",
"!  c #419BDF",
"~  c #7D90DA",
"^  c #7A85DF",
"/  c #59BEDE",
"(  c #4BB4D0",
")  c #78B6C2",
"_  c #62BCDE",
"`  c #74BCD3",
"'  c #73B3DE",
"]  c #7AAED5",
"[  c #5F8AEF",
"{  c #499BEA",
"}  c #4995F9",
"|  c #5B9BFA",
" . c #528BEC",
".. c #6D87EF",
"X. c #7886E5",
"o. c #6796EA",
"O. c #7799EA",
"+. c #6C83F4",
"@. c #6486F1",
"#. c #7988FC",
"$. c #6899F5",
"%. c #7797F6",
"&. c #46A7EA",
"*. c #57A7E9",
"=. c #4AB8EB",
"-. c #5CBCE6",
";. c #45A8F4",
":. c #56A3F7",
">. c #50ADFE",
",. c #54B3FA",
"<. c #4BBBF8",
"1. c #6AA7EA",
"2. c #79B7E7",
"3. c #64ACF5",
"4. c #66A5F7",
"5. c #77A8FA",
"6. c #68BAFA",
"7. c #76AEE8",
"8. c #07C0DE",
"9. c #08C4E5",
"0. c #16C8ED",
"q. c #11D3EC",
"w. c #1BC7F5",
"e. c #1DD6F9",
"r. c #18DAF4",
"t. c #0CD1F2",
"y. c #2AC4ED",
"u. c #38D5E9",
"i. c #25C5F7",
"p. c #3CCCF5",
"a. c #39C8F6",
"s. c #29D8F9",
"d. c #34D8FA",
"f. c #3ECAE8",
"g. c #0DE6F7",
"h. c #1AE3FA",
"j. c #1DEFFC",
"k. c #14E8F8",
"l. c #1AF2FB",
"z. c #10F5F4",
"x. c #29E8EC",
"c. c #23EAFE",
"v. c #29E3FF",
"b. c #31ECFE",
"n. c #35E9F8",
"m. c #21F3FD",
"M. c #2DF3FC",
"N. c #37F5FA",
"B. c #5CC7D8",
"V. c #43CBD6",
"C. c #69C6D5",
"Z. c #74C7D6",
"A. c #65C5CE",
"S. c #4AC5E5",
"D. c #57C2EB",
"F. c #59C7F6",
"G. c #49D9F8",
"H. c #5EDAFF",
"J. c #54D6FA",
"K. c #46CDF0",
"L. c #65CEE0",
"P. c #74C9E5",
"I. c #78D5E6",
"U. c #76D2E7",
"Y. c #69C6F8",
"T. c #72C9F8",
"R. c #67DBFA",
"E. c #6DDCEB",
"W. c #41E3FD",
"Q. c #48EAFE",
"!. c #56E5F9",
"~. c #45F4FF",
"^. c #70E3FE",
"/. c #63F6FD",
"(. c #818999",
"). c #87929C",
"_. c #8689A9",
"`. c #8394A5",
"'. c #8598A4",
"]. c #8A99A9",
"[. c #9298A6",
"{. c #8C97B1",
"}. c #979CB3",
"|. c #86A4AE",
" X c #8DA4B3",
".X c #89A8B7",
"XX c #93A6B3",
"oX c #99A8B9",
"OX c #8AB1BC",
"+X c #90B0B9",
"@X c #A1A6B9",
"#X c #8080D3",
"$X c #9485D6",
"%X c #A286CD",
"&X c #87ADC3",
"*X c #87B9C7",
"=X c #94B4C4",
"-X c #90BDCD",
";X c #94B7C8",
":X c #8CB3D7",
">X c #91B8D7",
",X c #8585E2",
"<X c #8895EE",
"1X c #8988F5",
"2X c #8798F8",
"3X c #9998FA",
"4X c #9198ED",
"5X c #91B9EF",
"6X c #83ADFD",
"7X c #89A3F5",
"8X c #97A4F9",
"9X c #87B9FC",
"0X c #9CBBFE",
"qX c #82A5E8",
"wX c #A2B8FD",
"eX c #80C9CF",
"rX c #8AC8DA",
"tX c #96CAD6",
"yX c #9BD1DD",
"uX c #A0C9D8",
"iX c #A5CBD3",
"pX c #87C7FB",
"aX c #9CC3FF",
"sX c #9ED9FF",
"dX c #91D4E9",
"fX c #A7DAE9",
"gX c #A1D1FF",
"hX c #B1D6FF",
/* pixels */
"                                                                ",
"                                                                ",
"                                }.      `.                      ",
"                        < [.@XB +X  Z  X X4                     ",
"                  (.    (.tX&XV.( U ) *X.Xt ].                  ",
"                    e Z.N ) rXB.' u.A.fX*X     Xr               ",
"                oX+XC.( D.1.{ { { { [ ] =.B.OX'.p               ",
"                XXyXB.J.<. .4...@.c j l ! A.*XoX                ",
"              i 6 Z.J.{ @.O.v 7X6X9X..j k 2.J M   ].            ",
"            [.tXI.!.^.1.5.O.,Xv m m 8Xz j  .D.fXr 8 t           ",
"            6 ).C.W.^.T.7.qXwXaX0X1X8X2X+.:.l dXC X             ",
"          4 # ( u.F.$.' aX<X1X<XhX5X8X1X+.*.k -.` -X            ",
"          @ yXD.p.F.6.O.b 1X3Xm 4XsXo.b X.{ } 2.&Xw >           ",
"          w tXP.E H.6.#.1X3XX.1X4XpX2X..4.*.} 2.yXZ .           ",
"          B *XC.T F.| $.+.2X5.1X9XO.O.%.:.H.;.-.yXiX:           ",
"          A tX` p.;.| $.%.$.5.%.T.pX$.6X| F.J.( *X'.p           ",
"          A =XI.G.R | :.| Y.o.4.*.L.:.3.| R T S.:XOXf           ",
"          g {.G.W.R ;.>.,.Y.3.Y.Y.S.=.Y.<.K.f.S.) |.p _.        ",
"        g   :Xa.b.Q a.R J.&.>.R.J.G.!./.Q.y.0.D.&X X  @X        ",
"      r     G =.j.w.a.W G.W K./.S.Q.N.u.n.d.0.n.M i     `.a     ",
"    _..X;X  d Z.k.k.i.y.d.W a.N.N.M.~.y.v.s.k.S.H =   e .Xs     ",
"    g OX) e =XrX!.z.c.0.s.i.w.b.m.M.s.r.h.t.g.E.Z.+X  .X.X6 &   ",
"    r =XtXD A *X` n.j.t.h.e.Q e.l.c.e.g.g.l.x.) fX2 1 Z y 7 %   ",
"    : Z {. XX S F P.n.k.t.t.Y Y Y 9.t.g.z.x.E.OX{.- 7 (.; u     ",
"      a [.f Z }.;X>X,XG.l.I L P I 8.8.k.M.I.=X=X[.u i 7 8 7     ",
"    r XX`.: 3 4 7 '.:X,X4.d.h.c.l.l.u.-.] |..Xa 7 - ).XX4 -     ",
"    O u ).4 - - , * 6 {.%X$X,XX.^ ^ h < < 4 i = 5 4 0 q $       ",
"      ; 6 0 s ).0 & B S XX; f _.w V i 9 i i V [.V B , , O       ",
"      O , Z 6 4 (.$ 0 B (.).|.'.).[.$ i 0 , = y y 6 < >         ",
"              X % % < 6 7 7 7 7 9 0 o : r 6 & 4 6 4             ",
"                                                                ",
"                                                                "
};
