/* XPM */
static char *out[] = {
/* columns rows colors chars-per-pixel */
"25 25 28 1 ",
"  c None",
". c #FFFD01",
"X c #FCFF01",
"o c #FDFF01",
"O c #FEFE00",
"+ c #FFFE00",
"@ c #FEFF00",
"# c yellow",
"$ c #FFFE01",
"% c #FEFF01",
"& c #FFFF01",
"* c #FEFE02",
"= c #FEFF02",
"- c #FFFF02",
"; c #FEFE03",
": c #FEFF03",
"> c #FFFE04",
", c #FFFF06",
"< c #FDFD0F",
"1 c #FCFD11",
"2 c #FBFC15",
"3 c #FCFD15",
"4 c #FDFC16",
"5 c #FCFC17",
"6 c #FDFC17",
"7 c #FBFD1A",
"8 c #FCFC18",
"9 c #FDFB1C",
/* pixels */
"                         ",
"                         ",
"     ###         %##     ",
"     ###         &##     ",
"   #####         &####   ",
"   #####,9     7-&####   ",
"   #####&8     6######   ",
" o&######5     4######=o ",
" +#######5     4#######& ",
" +#######5     4#######& ",
" +#######5     4#######& ",
" +#########@ ##########& ",
" +#########@ ##########& ",
" +########&& ##########& ",
" O########>.+##########& ",
" 2<###################13 ",
"   @##################   ",
"   ###################   ",
"   ###################   ",
"   ###################   ",
"     ###%&#######&##     ",
"        X&######:        ",
"        ;$######*        ",
"                         ",
"                         "
};
